<svg xmlns="http://www.w3.org/2000/svg" width="640" height="400" viewBox="0 0 640 400" font-family="system-ui, sans-serif">
  <!-- Sample image for the family house document: first floor plan -->
  <g fill="none" stroke="#8a8a8a" stroke-linecap="square">
    <rect x="40" y="30" width="560" height="330" stroke-width="6"/>
    <g stroke-width="3">
      <line x1="260" y1="30" x2="260" y2="140"/>
      <line x1="260" y1="190" x2="260" y2="360"/>
      <line x1="40" y1="200" x2="260" y2="200"/>
      <line x1="400" y1="30" x2="400" y2="140"/>
      <line x1="400" y1="190" x2="400" y2="360"/>
      <line x1="400" y1="200" x2="600" y2="200"/>
    </g>
    <g stroke-width="1.5">
      <rect x="290" y="210" width="80" height="120"/>
      <line x1="290" y1="230" x2="370" y2="230"/>
      <line x1="290" y1="250" x2="370" y2="250"/>
      <line x1="290" y1="270" x2="370" y2="270"/>
      <line x1="290" y1="290" x2="370" y2="290"/>
      <line x1="290" y1="310" x2="370" y2="310"/>
      <rect x="530" y="40" width="60" height="110" rx="8"/>
    </g>
  </g>
  <g font-size="14" fill="#8a8a8a" text-anchor="middle">
    <text x="150" y="120">Parents</text>
    <text x="150" y="285">Eliška</text>
    <text x="500" y="285">Tomáš</text>
    <text x="465" y="120">Bathroom</text>
    <text x="330" y="100">Landing</text>
    <text x="330" y="350" font-size="11">stairs</text>
  </g>
  <text x="320" y="390" font-size="11" fill="#8a8a8a" text-anchor="middle">First floor · 1 : 100</text>
</svg>
